# xmcd
#
# Track frame offsets: 
#        150
#        15984
#        35966
#        60982
#        81840
#        107351
#        129452
#        142657
#        165044
#        181290
#
# Disc length: 2781 seconds
#
# Revision: 1
# Processed by: cddbd v1.5.2PL0 Copyright (c) Steve Scherf et al.
# Submitted via: ExactAudioCopy v0.99pb5
#
DISCID=6a0adb0a
DTITLE=Deradoorian - The Expanding Flower Planet
DYEAR=2015
DGENRE=New Age
TTITLE0=A Beautiful Woman
TTITLE1=Expanding Flower Planet
TTITLE2=Violet Minded
TTITLE3=Komodo
TTITLE4=Your Creator
TTITLE5=The Invisible Man
TTITLE6=Dark Lord
TTITLE7=Ouneya
TTITLE8=The Eye
TTITLE9=Grow
EXTD=YEAR: 2015
EXTT0=
EXTT1=
EXTT2=
EXTT3=
EXTT4=
EXTT5=
EXTT6=
EXTT7=
EXTT8=
EXTT9=
PLAYORDER=
